<svg width="157" height="66" viewBox="0 0 157 66" fill="none" xmlns="http://www.w3.org/2000/svg">
<rect x="72" y="17" width="84" height="43" rx="4" fill="#8AB6D6"/>
<path d="M86.535 29.995C86.625 29.995 86.745 30.07 86.895 30.22C87.075 30.34 87.165 30.445 87.165 30.535V33.865L86.85 34.135C86.64 34.135 85.92 34.135 84.69 34.135C83.49 34.135 82.365 34.225 81.315 34.405L81.36 34.72C81.36 35.11 81.255 35.59 81.045 36.16C80.865 36.76 80.775 37.195 80.775 37.465C80.775 37.525 80.805 37.6 80.865 37.69C80.955 37.75 81.015 37.78 81.045 37.78V42.46C81.255 42.67 81.36 43.135 81.36 43.855L81.315 44.98C81.465 45.01 81.555 45.37 81.585 46.06C81.615 46.72 81.84 47.32 82.26 47.86C82.71 48.4 83.595 48.73 84.915 48.85C85.005 48.85 85.215 48.88 85.545 48.94C85.875 48.97 86.13 49.075 86.31 49.255C86.49 49.405 86.58 49.645 86.58 49.975C86.58 50.515 86.535 50.92 86.445 51.19C86.355 51.46 86.19 51.79 85.95 52.18L85.5 52.99C84.99 52.96 84.42 52.855 83.79 52.675C83.16 52.495 82.56 52.315 81.99 52.135C80.55 51.655 79.515 51.4 78.885 51.37C78.285 51.37 77.88 50.725 77.67 49.435C77.49 48.115 77.4 46.855 77.4 45.655C77.4 44.815 77.475 44.02 77.625 43.27C77.655 43.06 77.685 42.82 77.715 42.55C77.745 42.28 77.76 41.98 77.76 41.65C77.76 40.21 77.565 37.795 77.175 34.405C76.905 34.375 76.635 34.33 76.365 34.27C76.125 34.21 75.915 34.165 75.735 34.135C74.955 33.925 74.4 33.82 74.07 33.82C73.92 33.82 73.74 33.61 73.53 33.19C73.32 32.74 73.215 32.38 73.215 32.11C73.215 31.51 73.41 31.12 73.8 30.94C74.19 30.76 74.745 30.655 75.465 30.625C75.855 30.625 76.14 30.61 76.32 30.58C76.5 30.52 76.605 30.415 76.635 30.265C76.635 29.575 76.68 28.84 76.77 28.06C76.89 27.28 77.025 26.815 77.175 26.665C77.565 26.815 77.76 27.52 77.76 28.78L77.715 29.995L77.985 30.265C78.045 30.235 78.39 30.07 79.02 29.77C79.65 29.47 79.965 29.2 79.965 28.96L79.92 28.6C79.92 28.51 79.965 28.18 80.055 27.61C80.145 27.04 80.19 26.62 80.19 26.35H80.1C79.95 26.35 79.575 26.5 78.975 26.8C78.375 27.07 78.045 27.205 77.985 27.205C78.135 27.055 78.51 26.77 79.11 26.35C78.51 26.23 78.045 26.05 77.715 25.81C77.985 25.6 78.255 25.465 78.525 25.405C78.825 25.315 79.185 25.255 79.605 25.225C80.145 25.225 80.625 25.15 81.045 25C81.045 25.12 81.135 25.27 81.315 25.45C81.495 25.6 81.585 25.72 81.585 25.81C81.555 25.93 81.51 26.11 81.45 26.35C81.39 26.56 81.345 26.755 81.315 26.935C81.315 27.955 81.42 28.705 81.63 29.185C81.84 29.665 82.155 29.965 82.575 30.085C83.025 30.205 83.715 30.265 84.645 30.265C84.855 30.265 85.155 30.22 85.545 30.13C85.935 30.04 86.265 29.995 86.535 29.995ZM79.92 28.555V28.6V28.555ZM81.315 31.345C81.105 31.255 80.82 31 80.46 30.58C80.43 30.55 80.325 30.445 80.145 30.265C79.995 30.055 79.845 29.95 79.695 29.95C79.275 29.95 79.065 30.145 79.065 30.535H79.38C79.14 30.925 78.69 31.225 78.03 31.435C77.37 31.645 76.575 31.825 75.645 31.975C75.315 32.035 75.015 32.095 74.745 32.155C74.505 32.215 74.385 32.275 74.385 32.335C74.385 32.515 74.715 32.68 75.375 32.83C76.065 32.98 76.56 33.055 76.86 33.055L79.38 31.075H79.965L78.525 32.47V32.74L81.315 31.345ZM82.71 31.345C82.47 31.345 82.26 31.42 82.08 31.57C81.93 31.69 81.765 31.9 81.585 32.2C81.735 32.17 81.975 32.065 82.305 31.885C82.665 31.675 82.89 31.495 82.98 31.345H82.71ZM86.04 31.66L84.69 31.615L83.295 31.66C83.055 31.69 82.71 31.855 82.26 32.155C81.81 32.425 81.585 32.62 81.585 32.74V33.1C81.735 33.1 82.02 32.98 82.44 32.74C82.86 32.5 83.145 32.32 83.295 32.2L82.71 33.055C83.07 33.055 83.58 32.995 84.24 32.875C84.42 32.845 84.63 32.815 84.87 32.785C85.11 32.755 85.395 32.74 85.725 32.74L86.04 31.66ZM80.19 32.74V32.47C80.04 32.56 79.89 32.65 79.74 32.74C79.62 32.8 79.5 32.875 79.38 32.965C78.42 33.445 77.94 33.835 77.94 34.135H78.525L80.19 32.74ZM79.65 34.405C79.29 34.405 78.96 34.57 78.66 34.9C78.39 35.2 78.255 35.485 78.255 35.755V35.98C78.255 36.4 78.345 36.625 78.525 36.655C78.855 36.415 79.125 36.13 79.335 35.8C79.575 35.44 79.695 35.08 79.695 34.72L79.65 34.405ZM81.09 48.445C81.09 48.175 80.985 48.04 80.775 48.04L80.37 48.085L80.505 46.375C80.445 45.865 80.355 45.34 80.235 44.8C80.115 44.23 80.025 43.825 79.965 43.585L79.65 43.315L79.965 43.045L80.01 42.01C80.01 41.32 79.95 40.375 79.83 39.175C79.68 38.125 79.605 37.15 79.605 36.25C79.245 36.25 78.975 36.475 78.795 36.925C78.615 37.345 78.525 37.765 78.525 38.185C78.525 38.605 78.57 38.86 78.66 38.95C78.75 39.01 78.795 39.07 78.795 39.13C78.795 39.25 78.735 39.385 78.615 39.535C78.525 39.685 78.48 39.895 78.48 40.165C78.48 40.795 78.63 41.11 78.93 41.11H79.02C78.9 41.23 78.78 41.5 78.66 41.92C78.57 42.34 78.525 42.715 78.525 43.045C78.735 43.045 78.84 43.12 78.84 43.27C78.84 43.39 78.735 43.6 78.525 43.9C78.315 44.17 78.21 44.32 78.21 44.35C78.21 44.71 78.285 45.04 78.435 45.34C78.585 45.64 78.66 45.85 78.66 45.97C78.66 46.21 78.525 46.525 78.255 46.915C78.285 47.005 78.36 47.17 78.48 47.41C78.6 47.62 78.705 47.725 78.795 47.725C78.975 47.725 79.185 47.695 79.425 47.635C79.695 47.575 79.875 47.515 79.965 47.455C79.845 47.635 79.605 47.815 79.245 47.995C78.915 48.175 78.675 48.28 78.525 48.31C78.525 49.72 79.395 50.425 81.135 50.425C81.135 51.055 81.36 51.37 81.81 51.37C81.96 51.37 82.125 51.325 82.305 51.235C82.485 51.115 82.62 50.965 82.71 50.785C82.77 50.785 82.815 50.815 82.845 50.875C82.875 50.905 82.92 50.92 82.98 50.92V51.415C83.7 51.415 84.345 51.025 84.915 50.245C84.855 49.885 84.21 49.705 82.98 49.705C82.86 49.705 82.71 49.735 82.53 49.795C82.38 49.855 82.245 49.915 82.125 49.975C82.155 49.945 82.17 49.885 82.17 49.795C82.17 49.615 82.005 49.465 81.675 49.345C81.345 49.195 81.09 49.12 80.91 49.12C80.73 49.12 80.475 49.165 80.145 49.255C79.845 49.345 79.59 49.39 79.38 49.39C79.44 49.27 79.695 49.12 80.145 48.94C80.595 48.73 80.895 48.595 81.045 48.535L81.09 48.445ZM79.11 41.065L79.02 41.11L79.11 41.065ZM85.32 51.64C85.32 51.16 85.185 50.875 84.915 50.785C84.765 50.875 84.615 51.01 84.465 51.19C84.345 51.34 84.285 51.49 84.285 51.64H85.32ZM108.495 48.76C108.435 48.76 108.375 48.79 108.315 48.85C108.255 48.88 108.225 48.925 108.225 48.985C108.225 49.075 108.315 49.465 108.495 50.155C108.675 50.845 108.765 51.385 108.765 51.775C108.765 52.105 108.495 52.315 107.955 52.405C107.445 52.495 106.86 52.54 106.2 52.54C105.57 52.57 105.255 52.6 105.255 52.63C105.195 52.6 105.075 52.525 104.895 52.405C104.715 52.285 104.625 52.18 104.625 52.09V43.18C104.625 41.8 104.58 40.54 104.49 39.4C104.4 38.26 104.175 37.3 103.815 36.52H103.77C103.62 36.52 103.125 36.28 102.285 35.8C101.475 35.29 101.04 34.975 100.98 34.855C100.98 34.885 100.485 34.99 99.495 35.17C98.535 35.32 97.605 35.62 96.705 36.07C95.835 36.49 95.325 37.105 95.175 37.915C95.115 38.245 95.055 38.665 94.995 39.175C94.935 39.685 94.905 40.105 94.905 40.435C94.845 41.155 94.815 41.725 94.815 42.145C94.635 44.545 94.545 46.36 94.545 47.59C94.545 48.34 94.56 48.895 94.59 49.255L94.32 49.525C94.38 49.615 94.53 49.855 94.77 50.245C95.04 50.605 95.175 50.95 95.175 51.28C95.175 51.46 95.13 51.64 95.04 51.82C94.95 52 94.8 52.09 94.59 52.09H91.305C91.215 51.91 91.065 51.805 90.855 51.775C90.675 51.745 90.555 51.655 90.495 51.505L90.45 47.815C90.45 45.805 90.6 42.79 90.9 38.77C90.93 38.29 91.005 37.09 91.125 35.17C91.245 33.25 91.305 31.465 91.305 29.815C91.305 29.155 91.29 28.39 91.26 27.52C91.23 26.62 91.2 25.93 91.17 25.45C91.05 23.47 90.99 21.985 90.99 20.995H94.32L94.905 21.265V23.605C94.905 28.675 94.995 31.21 95.175 31.21L95.445 31.795C96.435 31.465 97.575 31.15 98.865 30.85C100.185 30.55 101.22 30.4 101.97 30.4C103.32 30.4 104.55 30.835 105.66 31.705C106.8 32.545 107.685 33.625 108.315 34.945C108.975 36.265 109.305 37.57 109.305 38.86C109.305 39.61 109.245 40.45 109.125 41.38C109.005 42.31 108.93 42.91 108.9 43.18C108.6 45.16 108.45 46.66 108.45 47.68C108.45 48.16 108.465 48.52 108.495 48.76ZM93.24 22.12C93.03 22.12 92.79 22.18 92.52 22.3C92.25 22.42 92.115 22.525 92.115 22.615C92.115 23.065 92.265 23.83 92.565 24.91C92.805 25.87 92.925 26.485 92.925 26.755C92.925 26.845 92.895 26.95 92.835 27.07C92.775 27.19 92.715 27.28 92.655 27.34V31.795L92.925 32.065C92.805 32.065 92.7 32.215 92.61 32.515C92.55 32.815 92.52 33.13 92.52 33.46H93.24C92.79 33.79 92.565 34.09 92.565 34.36C92.745 34.36 93 34.285 93.33 34.135C93.69 33.955 93.93 33.82 94.05 33.73C94.05 33.49 93.99 33.16 93.87 32.74C93.75 32.32 93.63 32.095 93.51 32.065C93.54 32.005 93.585 31.885 93.645 31.705C93.705 31.525 93.75 31.36 93.78 31.21C93.78 30.82 93.72 30.265 93.6 29.545C93.45 28.885 93.375 28.255 93.375 27.655H93.24C93.39 27.385 93.48 27.145 93.51 26.935C93.54 26.695 93.555 26.365 93.555 25.945C93.555 25.435 93.495 25.15 93.375 25.09C93.285 25 93.24 24.925 93.24 24.865C93.24 24.715 93.285 24.505 93.375 24.235C93.495 23.935 93.555 23.59 93.555 23.2C93.555 22.78 93.525 22.495 93.465 22.345C93.435 22.195 93.36 22.12 93.24 22.12ZM100.71 34C100.98 34 102.015 33.445 103.815 32.335C103.545 32.155 103.155 32.065 102.645 32.065C102.165 32.065 101.895 32.065 101.835 32.065L100.44 33.775L100.71 34ZM96.615 34.36C99.135 33.46 100.5 32.785 100.71 32.335L100.44 32.065C98.16 32.635 97.065 32.92 97.155 32.92L96.57 32.875C96.45 32.935 96.225 33.16 95.895 33.55C95.685 33.82 95.49 34.03 95.31 34.18C95.16 34.3 94.98 34.36 94.77 34.36C94.65 34.36 94.545 34.315 94.455 34.225C94.395 34.105 94.35 34.03 94.32 34C93.69 34.21 93.21 34.435 92.88 34.675C92.55 34.885 92.385 35.215 92.385 35.665C92.385 36.025 92.565 36.205 92.925 36.205C93.705 36.055 94.23 35.92 94.5 35.8C94.77 35.65 94.95 35.47 95.04 35.26C95.16 35.05 95.295 34.915 95.445 34.855L96.615 34.36ZM103.815 34.36C104.085 34.36 104.385 34.27 104.715 34.09C105.045 33.91 105.285 33.7 105.435 33.46L104.85 32.875L103.5 34.315L103.815 34.36ZM99.18 33.82C99.42 33.82 99.6 33.79 99.72 33.73C99.84 33.64 99.9 33.46 99.9 33.19L98.775 33.775L99.18 33.82ZM102.195 34.36C102.285 34.36 102.465 34.225 102.735 33.955C103.035 33.685 103.29 33.43 103.5 33.19C103.47 33.22 103.245 33.295 102.825 33.415C102.435 33.535 102.015 33.73 101.565 34C101.625 34.06 101.73 34.135 101.88 34.225C102.03 34.285 102.135 34.33 102.195 34.36ZM105.165 36.745C105.255 36.745 105.39 36.715 105.57 36.655C105.75 36.565 105.885 36.52 105.975 36.52L105.66 37.105L106.29 37.33L105.66 37.915C105.96 37.915 106.365 37.795 106.875 37.555C107.415 37.285 107.685 36.94 107.685 36.52C107.685 36.34 107.625 36.19 107.505 36.07C107.385 35.95 107.235 35.89 107.055 35.89L106.83 35.935L107.1 35.44C107.1 35.14 107.025 34.87 106.875 34.63C106.725 34.39 106.53 34.27 106.29 34.27C105.99 34.27 105.675 34.39 105.345 34.63C105.045 34.87 104.805 35.14 104.625 35.44L105.165 35.665C105.135 35.815 105.075 35.98 104.985 36.16C104.925 36.34 104.88 36.46 104.85 36.52C104.85 36.58 104.88 36.64 104.94 36.7C105.03 36.73 105.105 36.745 105.165 36.745ZM93.51 42.865C93.45 41.965 93.42 41.08 93.42 40.21C93.42 38.68 93.54 37.45 93.78 36.52C93.72 36.55 93.63 36.595 93.51 36.655C93.39 36.685 93.3 36.715 93.24 36.745C92.73 36.985 92.4 37.195 92.25 37.375C92.13 37.525 92.07 37.825 92.07 38.275C92.07 38.395 92.085 38.455 92.115 38.455L92.655 38.77L92.115 39.265V42.865L92.655 43.18C92.415 43.24 92.205 43.375 92.025 43.585C91.845 43.765 91.755 43.975 91.755 44.215C91.965 44.215 92.235 44.29 92.565 44.44C92.925 44.56 93.15 44.695 93.24 44.845C93.45 44.545 93.555 44.17 93.555 43.72H92.925C93.075 43.33 93.27 43.045 93.51 42.865ZM105.435 39.985C106.215 39.985 106.86 39.775 107.37 39.355C107.88 38.935 108.135 38.335 108.135 37.555C107.415 37.555 106.785 37.78 106.245 38.23C105.705 38.68 105.435 39.265 105.435 39.985ZM105.615 41.92C106.125 41.92 106.635 41.665 107.145 41.155C107.685 40.615 107.955 40.075 107.955 39.535C107.625 39.535 107.205 39.685 106.695 39.985C106.185 40.285 105.93 40.6 105.93 40.93H106.56C106.47 41.08 106.335 41.2 106.155 41.29C106.005 41.35 105.87 41.425 105.75 41.515C105.66 41.575 105.615 41.71 105.615 41.92ZM107.01 44.845C107.01 44.605 107.13 44.245 107.37 43.765C107.4 43.705 107.49 43.48 107.64 43.09C107.82 42.7 107.91 42.235 107.91 41.695C107.91 41.605 107.88 41.515 107.82 41.425C107.79 41.305 107.73 41.245 107.64 41.245L105.975 42.325V42.415C105.975 42.715 106.08 42.865 106.29 42.865C106.08 43.045 105.885 43.255 105.705 43.495C105.525 43.705 105.435 43.87 105.435 43.99L105.975 43.72C105.945 43.75 105.93 43.795 105.93 43.855C105.93 43.945 105.96 44.035 106.02 44.125C106.11 44.215 106.2 44.275 106.29 44.305C106.23 44.365 106.155 44.425 106.065 44.485C106.005 44.545 105.975 44.665 105.975 44.845C106.005 44.905 106.05 44.965 106.11 45.025C106.17 45.055 106.23 45.085 106.29 45.115L105.975 45.385V51.325H106.335C106.665 51.325 106.92 51.28 107.1 51.19C107.28 51.1 107.37 50.92 107.37 50.65C107.37 50.17 107.355 49.765 107.325 49.435C107.295 49.075 107.265 48.775 107.235 48.535C107.115 47.575 107.055 46.795 107.055 46.195H106.83C107.28 45.745 107.505 45.295 107.505 44.845H107.01ZM93.24 45.385C93.15 45.385 93 45.43 92.79 45.52C92.58 45.61 92.445 45.655 92.385 45.655L92.655 45.115C92.445 45.115 92.25 45.16 92.07 45.25C91.89 45.34 91.8 45.445 91.8 45.565C91.8 45.745 91.86 45.865 91.98 45.925C92.13 45.955 92.31 45.97 92.52 45.97C92.76 45.97 92.94 45.955 93.06 45.925C93.21 45.895 93.36 45.805 93.51 45.655C93.51 45.595 93.465 45.535 93.375 45.475C93.315 45.415 93.27 45.385 93.24 45.385ZM92.655 50.65C92.955 50.65 93.18 50.545 93.33 50.335C93.48 50.095 93.555 49.825 93.555 49.525C93.555 49.345 93.54 49.165 93.51 48.985C93.48 48.775 93.39 48.595 93.24 48.445C93.15 48.475 93.015 48.535 92.835 48.625C92.655 48.715 92.505 48.76 92.385 48.76L93.51 47.635C93.39 47.035 93.24 46.735 93.06 46.735L92.925 46.78L93.24 46.195C92.37 46.255 91.8 46.555 91.53 47.095C91.53 47.125 91.56 47.17 91.62 47.23C91.71 47.29 91.785 47.32 91.845 47.32C91.935 47.32 92.025 47.29 92.115 47.23C92.235 47.17 92.325 47.125 92.385 47.095L91.845 47.905L92.115 48.175C91.965 48.235 91.875 48.31 91.845 48.4C91.815 48.46 91.8 48.565 91.8 48.715C91.83 48.835 91.89 49.03 91.98 49.3C92.07 49.54 92.115 49.72 92.115 49.84C92.085 49.87 92.025 49.915 91.935 49.975C91.845 50.035 91.8 50.14 91.8 50.29C91.8 50.35 91.905 50.425 92.115 50.515C92.325 50.605 92.505 50.65 92.655 50.65ZM120.77 30.805C121.13 30.805 121.31 30.925 121.31 31.165C121.31 31.255 121.235 31.525 121.085 31.975C120.965 32.425 120.89 32.74 120.86 32.92L121.895 31.885C123.065 31.135 124.16 30.52 125.18 30.04C126.2 29.56 127.205 29.32 128.195 29.32C128.285 29.44 128.33 29.8 128.33 30.4C128.33 30.7 128.3 31.18 128.24 31.84C128.18 32.56 128.15 33.13 128.15 33.55C128.15 33.73 128.18 33.97 128.24 34.27C128.24 34.33 128.12 34.405 127.88 34.495C127.64 34.555 127.46 34.6 127.34 34.63C125.9 35.05 124.67 35.545 123.65 36.115C122.63 36.685 122.045 37.495 121.895 38.545L121.715 39.535C121.415 41.185 121.265 42.205 121.265 42.595C121.265 43.525 121.37 44.65 121.58 45.97C121.61 46.18 121.67 46.675 121.76 47.455C121.85 48.205 121.895 48.91 121.895 49.57C121.895 49.75 121.865 50.035 121.805 50.425C121.745 50.815 121.685 51.19 121.625 51.55L121.895 51.865C121.865 52.045 121.475 52.18 120.725 52.27C119.975 52.39 119.435 52.45 119.105 52.45H118.97C118.85 52.45 118.76 52.42 118.7 52.36C118.64 52.33 118.595 52.255 118.565 52.135C118.475 52.345 118.295 52.495 118.025 52.585C117.785 52.675 117.545 52.72 117.305 52.72C117.155 52.69 116.975 52.645 116.765 52.585C116.585 52.555 116.45 52.51 116.36 52.45L116.045 49.615V30.805H120.77ZM125.18 32.02C125.66 32.02 125.9 32.35 125.9 33.01C125.9 33.22 125.885 33.415 125.855 33.595C125.825 33.745 125.81 33.895 125.81 34.045C126.23 33.895 126.56 33.64 126.8 33.28C127.07 32.92 127.205 32.5 127.205 32.02C127.205 31.78 126.995 31.51 126.575 31.21C126.155 30.88 125.945 30.655 125.945 30.535C125.945 30.505 125.975 30.46 126.035 30.4C125.645 30.79 125.45 31 125.45 31.03L125.495 31.255C125.285 31.465 124.97 31.66 124.55 31.84C124.13 32.02 123.815 32.215 123.605 32.425C123.395 32.635 123.29 32.98 123.29 33.46C123.47 33.43 123.635 33.34 123.785 33.19C123.965 33.01 124.115 32.845 124.235 32.695C124.565 32.245 124.88 32.02 125.18 32.02ZM119.555 33.145C119.555 33.895 119.03 34.87 117.98 36.07C118.4 35.92 118.835 35.725 119.285 35.485C119.735 35.215 119.96 35.02 119.96 34.9V32.155C119.69 32.095 119.27 32.035 118.7 31.975C118.13 31.915 117.71 31.87 117.44 31.84V32.74H117.62C117.62 32.95 117.575 33.16 117.485 33.37C117.425 33.58 117.395 33.775 117.395 33.955C117.905 33.955 118.385 33.73 118.835 33.28L117.44 34.675V35.26C117.5 35.2 117.83 34.84 118.43 34.18C119.06 33.49 119.435 33.145 119.555 33.145ZM117.98 41.335C118.34 41.305 118.775 41.2 119.285 41.02C119.795 40.81 120.11 40.645 120.23 40.525C120.35 39.955 120.425 39.58 120.455 39.4C120.815 37.84 121.115 36.655 121.355 35.845C121.595 35.035 121.97 34.18 122.48 33.28C121.67 33.94 120.83 34.765 119.96 35.755C119.12 36.745 118.46 37.675 117.98 38.545H118.16L120.23 38.005V38.23L117.98 41.02V41.335ZM123.155 35.035C123.485 35.035 123.755 34.945 123.965 34.765C124.175 34.555 124.28 34.3 124.28 34L124.235 33.595L122.885 34.99L123.155 35.035ZM118.565 36.61C118.085 36.61 117.77 36.7 117.62 36.88C117.47 37.06 117.395 37.345 117.395 37.735L117.44 38.23L118.565 36.61ZM118.295 39.355C117.605 39.355 117.26 39.745 117.26 40.525H117.71L118.565 39.355H118.295ZM119.24 41.605C118.79 41.665 118.37 41.755 117.98 41.875C117.62 41.995 117.44 42.085 117.44 42.145V43.855L119.375 41.605H119.24ZM117.71 44.665C117.83 44.815 117.98 44.89 118.16 44.89C118.67 44.89 119.135 44.725 119.555 44.395C120.005 44.065 120.23 43.66 120.23 43.18V42.865C120.23 42.415 120.14 42.085 119.96 41.875C119.84 42.055 119.51 42.445 118.97 43.045C118.46 43.645 118.04 44.185 117.71 44.665ZM117.17 46.6C117.17 46.63 117.26 46.915 117.44 47.455C117.59 47.305 117.845 47.065 118.205 46.735C118.565 46.375 118.85 46.075 119.06 45.835C119.27 45.565 119.375 45.355 119.375 45.205L119.15 45.16C118.61 45.16 118.145 45.28 117.755 45.52C117.365 45.73 117.17 46.09 117.17 46.6ZM120.23 45.205C120.2 45.265 119.9 45.655 119.33 46.375C118.91 46.825 118.565 47.275 118.295 47.725C119.165 47.725 119.75 47.635 120.05 47.455C120.35 47.245 120.5 46.765 120.5 46.015C120.5 45.655 120.41 45.385 120.23 45.205ZM117.44 49.12C117.44 49.27 117.47 49.465 117.53 49.705C117.59 49.915 117.65 50.095 117.71 50.245C118.13 50.035 118.52 49.72 118.88 49.3C119.24 48.88 119.495 48.445 119.645 47.995C119.495 48.085 119.345 48.16 119.195 48.22C119.045 48.25 118.91 48.295 118.79 48.355C117.89 48.715 117.44 48.97 117.44 49.12ZM120.5 48.22C119.81 48.88 119.255 49.555 118.835 50.245H119.15C119.3 50.245 119.6 50.155 120.05 49.975C120.53 49.795 120.77 49.675 120.77 49.615L120.5 48.22ZM120.77 50.425C120.35 50.425 119.9 50.5 119.42 50.65C118.97 50.8 118.685 51.025 118.565 51.325H119.15C120.23 51.325 120.77 51.145 120.77 50.785V50.425ZM150.687 31.75C150.837 31.75 151.062 34.54 151.362 40.12C151.662 45.67 151.812 49.36 151.812 51.19C151.662 51.73 151.302 52.075 150.732 52.225C150.162 52.375 149.412 52.45 148.482 52.45C147.852 52.45 147.432 52.345 147.222 52.135C147.012 51.925 146.907 51.52 146.907 50.92L146.952 49.615C146.832 49.705 146.532 50.035 146.052 50.605C145.572 51.145 144.882 51.61 143.982 52C143.082 52.36 141.852 52.54 140.292 52.54C138.102 52.54 136.422 51.625 135.252 49.795C134.082 47.935 133.407 45.715 133.227 43.135L132.912 39.805V39.22C133.272 37.42 133.452 36.415 133.452 36.205C133.452 35.845 133.407 35.305 133.317 34.585L133.227 33.145V32.695C133.227 32.245 133.302 31.795 133.452 31.345C133.632 30.865 133.917 30.625 134.307 30.625L137.097 30.94C137.307 30.94 137.457 31.255 137.547 31.885C137.667 32.485 137.727 33.07 137.727 33.64C137.727 34.3 137.697 34.96 137.637 35.62L137.907 35.89L137.862 41.02C137.862 42.82 137.982 44.215 138.222 45.205C138.462 46.195 138.942 46.945 139.662 47.455C140.382 47.935 141.477 48.175 142.947 48.175C144.087 48.175 145.002 48.07 145.692 47.86C146.382 47.65 146.937 47.185 147.357 46.465L147.402 44.845C147.402 43.765 147.342 42.145 147.222 39.985C147.072 38.185 146.997 36.55 146.997 35.08C146.997 34.51 146.997 33.925 146.997 33.325C147.027 32.695 147.057 32.26 147.087 32.02L147.582 31.75H150.687ZM134.577 36.25C134.577 36.55 134.667 36.715 134.847 36.745C134.937 36.475 135.087 36.235 135.297 36.025C135.537 35.785 135.672 35.65 135.702 35.62C136.002 35.32 136.212 35.08 136.332 34.9C136.482 34.69 136.557 34.435 136.557 34.135C136.557 33.535 136.482 33.235 136.332 33.235C136.182 33.205 136.107 33.16 136.107 33.1C136.107 32.98 136.167 32.755 136.287 32.425C136.287 32.125 135.717 31.975 134.577 31.975V33.685L134.802 34.72C134.802 34.84 134.757 35.035 134.667 35.305C134.607 35.545 134.577 35.785 134.577 36.025V36.25ZM148.212 34.945C148.722 35.065 148.977 35.185 148.977 35.305C148.977 35.365 148.842 35.53 148.572 35.8C148.332 36.07 148.212 36.34 148.212 36.61C148.212 36.67 148.227 36.76 148.257 36.88C148.317 36.97 148.392 37.015 148.482 37.015C149.142 36.625 149.532 36.265 149.652 35.935C149.802 35.575 149.877 34.885 149.877 33.865C149.877 33.535 149.832 33.28 149.742 33.1C149.652 32.92 149.457 32.83 149.157 32.83L148.482 32.875L148.212 34.945ZM135.162 37.015C135.792 37.015 136.197 36.97 136.377 36.88C136.587 36.79 136.692 36.52 136.692 36.07C136.692 35.95 136.632 35.71 136.512 35.35C135.702 36.04 135.252 36.595 135.162 37.015ZM149.022 38.365C148.872 38.365 148.692 38.425 148.482 38.545C148.272 38.665 148.167 38.755 148.167 38.815C148.167 38.965 148.212 39.13 148.302 39.31C148.392 39.49 148.497 39.58 148.617 39.58C148.977 39.58 149.322 39.25 149.652 38.59C149.982 37.93 150.147 37.405 150.147 37.015C150.147 36.925 150.102 36.82 150.012 36.7C149.952 36.58 149.892 36.52 149.832 36.52L148.482 37.87L148.437 37.96C148.437 38.08 148.497 38.185 148.617 38.275C148.737 38.335 148.872 38.365 149.022 38.365ZM136.287 37.33C135.717 37.33 135.297 37.36 135.027 37.42C134.787 37.48 134.607 37.645 134.487 37.915C134.367 38.185 134.307 38.62 134.307 39.22C134.787 38.89 135.237 38.545 135.657 38.185C136.077 37.795 136.287 37.51 136.287 37.33ZM136.827 38.095C136.827 38.035 136.812 38.005 136.782 38.005C136.632 38.005 136.152 38.32 135.342 38.95C134.952 39.28 134.697 39.475 134.577 39.535V39.805L136.152 40.03C136.242 40 136.347 39.955 136.467 39.895C136.617 39.805 136.737 39.76 136.827 39.76V38.095ZM148.707 40.75C148.707 40.81 148.752 40.945 148.842 41.155C148.962 41.335 149.127 41.425 149.337 41.425C148.917 41.425 148.662 41.62 148.572 42.01C148.482 42.4 148.437 42.895 148.437 43.495C148.887 43.495 149.262 43.315 149.562 42.955C149.892 42.595 150.057 42.19 150.057 41.74H149.562C149.802 41.56 149.937 41.26 149.967 40.84C149.997 40.39 150.012 39.865 150.012 39.265C149.622 39.265 149.307 39.415 149.067 39.715C148.827 40.015 148.707 40.36 148.707 40.75ZM134.217 40.615C134.217 41.725 134.337 42.28 134.577 42.28L136.017 40.93V40.615H134.217ZM136.827 40.93C136.047 41.62 135.207 42.535 134.307 43.675H136.827C136.857 43.675 136.902 43.585 136.962 43.405C137.052 43.195 137.097 43.015 137.097 42.865C137.097 42.505 137.052 42.175 136.962 41.875C136.932 41.755 136.902 41.62 136.872 41.47C136.842 41.32 136.827 41.14 136.827 40.93ZM148.977 44.575C149.517 44.575 149.862 44.515 150.012 44.395C150.162 44.245 150.237 43.885 150.237 43.315C149.937 43.315 149.652 43.45 149.382 43.72C149.112 43.96 148.977 44.245 148.977 44.575ZM134.577 45.025C134.577 45.535 134.607 45.91 134.667 46.15C134.757 46.39 134.982 46.51 135.342 46.51C135.822 46.51 136.272 46.42 136.692 46.24C137.142 46.03 137.367 45.73 137.367 45.34C137.367 45.16 137.337 45.025 137.277 44.935C137.217 44.845 137.067 44.8 136.827 44.8C136.737 44.83 136.557 45.01 136.287 45.34C136.017 45.67 135.822 45.955 135.702 46.195L135.162 45.925C135.792 45.205 136.152 44.65 136.242 44.26C136.032 44.29 135.762 44.305 135.432 44.305C135.132 44.305 134.907 44.35 134.757 44.44C134.637 44.53 134.577 44.725 134.577 45.025ZM149.022 45.07C148.812 45.07 148.707 45.25 148.707 45.61V45.925C148.707 46.255 148.812 46.435 149.022 46.465C149.592 45.895 149.877 45.58 149.877 45.52C149.877 45.43 149.772 45.34 149.562 45.25C149.352 45.13 149.172 45.07 149.022 45.07ZM150.192 47.86C150.342 47.86 150.417 47.665 150.417 47.275C150.387 47.125 150.327 46.945 150.237 46.735C150.147 46.525 150.087 46.42 150.057 46.42C149.817 46.42 149.592 46.525 149.382 46.735C149.172 46.945 149.052 47.05 149.022 47.05C149.022 47.17 149.052 47.29 149.112 47.41C149.172 47.5 149.247 47.56 149.337 47.59C149.067 48.01 148.737 48.355 148.347 48.625C147.987 48.895 147.732 49.03 147.582 49.03C147.582 49.21 147.627 49.33 147.717 49.39C147.807 49.45 147.867 49.495 147.897 49.525L149.562 48.4V47.68C149.682 47.68 149.802 47.71 149.922 47.77C150.042 47.83 150.132 47.86 150.192 47.86ZM136.512 49.795C137.232 50.005 137.697 50.185 137.907 50.335L139.572 49.525V49.255H139.032V48.67H136.512V48.355L137.097 48.4C137.817 48.4 138.177 48.22 138.177 47.86C138.177 47.77 138.147 47.665 138.087 47.545C138.027 47.425 137.967 47.335 137.907 47.275L137.097 47.86C137.097 47.68 137.142 47.455 137.232 47.185C137.322 46.915 137.367 46.675 137.367 46.465C137.277 46.525 137.007 46.615 136.557 46.735C136.107 46.825 135.747 46.93 135.477 47.05C135.237 47.17 135.117 47.35 135.117 47.59L135.162 47.86L136.512 49.795ZM149.247 50.11C150.027 50.11 150.417 49.885 150.417 49.435C150.417 49.165 150.387 48.97 150.327 48.85C150.297 48.7 150.207 48.625 150.057 48.625C149.727 48.625 149.382 48.79 149.022 49.12C148.692 49.45 148.512 49.765 148.482 50.065L149.247 50.11ZM146.547 49.255L145.962 49.21C145.632 49.21 145.377 49.225 145.197 49.255C145.017 49.285 144.807 49.375 144.567 49.525H140.427C140.307 49.525 140.007 49.675 139.527 49.975C139.077 50.245 138.732 50.47 138.492 50.65C138.942 51.01 139.812 51.19 141.102 51.19C141.372 51.19 141.597 51.16 141.777 51.1C141.957 51.04 142.152 50.89 142.362 50.65V51.28C143.232 51.28 143.862 51.19 144.252 51.01C144.672 50.83 145.062 50.425 145.422 49.795L145.737 50.065L146.547 49.255ZM150.147 50.875V50.65L148.257 50.965L148.662 51.37L150.147 50.875Z" fill="#355C7D"/>
<path d="M5.4 39.405C4.98 39.405 4.53 39.33 4.05 39.18C3.57 39.03 3.27 38.79 3.15 38.46C3.15 37.56 3.165 36.765 3.195 36.075C3.225 35.385 3.255 34.815 3.285 34.365C3.375 32.955 3.42 31.59 3.42 30.27V28.425C3.42 26.985 3.375 25.725 3.285 24.645C3.225 23.565 3.075 22.515 2.835 21.495V9.57H8.415C8.805 9.72 9.165 9.81 9.495 9.84C9.825 9.87 10.305 9.885 10.935 9.885C11.295 9.885 11.565 9.78 11.745 9.57C13.035 9.57 14.49 9.51 16.11 9.39L17.595 9.3C17.985 9.3 19.17 9.39 21.15 9.57C21.21 9.63 21.27 9.72 21.33 9.84C21.42 9.96 21.48 10.065 21.51 10.155C21.51 10.665 21.435 11.115 21.285 11.505C21.165 11.925 21.105 12.315 21.105 12.675L21.15 13.17L20.07 13.44C18.81 13.35 17.535 13.305 16.245 13.305C12.915 13.305 9.945 13.635 7.335 14.295C7.185 14.625 7.08 14.91 7.02 15.15C6.99 15.39 6.975 15.69 6.975 16.05C6.975 16.38 7.035 16.845 7.155 17.445C7.275 18.105 7.335 18.585 7.335 18.885L7.02 21.495L7.56 22.035L9 22.125C9.69 22.125 10.485 22.05 11.385 21.9C11.715 21.81 12.015 21.765 12.285 21.765C12.495 21.975 12.63 22.08 12.69 22.08H12.645L12.735 22.125C12.975 22.125 13.095 21.975 13.095 21.675H18.135C18.375 22.005 18.555 22.32 18.675 22.62L19.215 22.35C19.095 22.47 19.02 22.635 18.99 22.845C18.96 23.025 18.945 23.25 18.945 23.52C18.945 24.63 18.96 25.26 18.99 25.41L18.405 25.905C15.975 25.905 12.87 26.01 9.09 26.22L7.83 26.265L7.38 26.22C7.14 26.22 7.02 26.31 7.02 26.49V34.86L7.335 35.355C7.365 35.415 7.92 35.49 9 35.58C10.11 35.64 11.07 35.67 11.88 35.67C12.24 35.67 12.93 35.55 13.95 35.31C15.09 35.01 15.915 34.86 16.425 34.86C16.815 34.86 17.28 34.905 17.82 34.995C18.36 35.055 18.645 35.1 18.675 35.13L18.99 35.355C19.02 35.175 19.185 35.085 19.485 35.085L20.07 35.13L19.575 35.355L20.205 35.31H20.475C20.655 35.31 20.79 35.34 20.88 35.4C21 35.43 21.09 35.52 21.15 35.67C21.24 35.64 21.33 35.595 21.42 35.535C21.54 35.445 21.645 35.385 21.735 35.355C22.005 35.535 22.17 35.775 22.23 36.075C22.32 36.345 22.365 36.72 22.365 37.2C22.365 38.67 22.155 39.63 21.735 40.08L20.52 40.125C19.74 40.125 19.125 40.08 18.675 39.99C18.225 39.9 17.67 39.705 17.01 39.405H5.4ZM16.425 10.65C16.395 10.74 16.38 10.845 16.38 10.965C16.38 11.205 16.44 11.37 16.56 11.46C16.68 11.52 16.86 11.55 17.1 11.55C17.43 11.55 17.73 11.475 18 11.325C18.3 11.175 18.45 10.95 18.45 10.65H16.425ZM5.085 12.9C5.325 12.9 5.97 12.66 7.02 12.18C8.1 11.7 8.655 11.385 8.685 11.235C8.205 11.025 7.455 10.92 6.435 10.92C4.995 10.92 4.275 10.935 4.275 10.965L3.96 12.315C4.26 12.315 4.74 12.135 5.4 11.775L4.77 12.9H5.085ZM11.16 11.235H11.475V10.965L11.16 11.235ZM9.81 11.775C9.63 11.835 9.495 11.955 9.405 12.135C9.315 12.315 9.255 12.435 9.225 12.495C9.225 12.555 9.27 12.585 9.36 12.585C9.69 12.585 9.855 12.42 9.855 12.09L9.81 11.775ZM5.4 13.44C5.07 13.44 4.785 13.515 4.545 13.665C4.305 13.815 4.185 14.04 4.185 14.34C4.455 14.34 4.71 14.25 4.95 14.07C5.22 13.89 5.43 13.68 5.58 13.44H5.4ZM5.4 15.69C5.28 15.87 5.115 16.005 4.905 16.095C4.695 16.185 4.53 16.29 4.41 16.41C4.29 16.5 4.23 16.665 4.23 16.905L4.275 17.31C4.785 16.89 5.13 16.53 5.31 16.23C5.52 15.93 5.625 15.51 5.625 14.97L5.58 14.295C5.4 14.475 5.13 14.685 4.77 14.925C4.44 15.165 4.275 15.315 4.275 15.375C4.275 15.615 4.515 15.735 4.995 15.735L5.4 15.69ZM6.03 16.995C5.52 16.995 5.01 17.475 4.5 18.435C5.04 18.435 5.4 18.405 5.58 18.345C5.79 18.285 5.91 18.18 5.94 18.03C6 17.85 6.03 17.505 6.03 16.995ZM5.085 19.02C4.935 19.02 4.755 19.05 4.545 19.11C4.365 19.17 4.275 19.215 4.275 19.245V21.045C4.575 21.045 4.935 20.85 5.355 20.46C5.775 20.07 5.985 19.695 5.985 19.335C5.985 19.275 5.88 19.215 5.67 19.155C5.46 19.065 5.265 19.02 5.085 19.02ZM6.21 20.91C5.85 20.91 5.505 21.03 5.175 21.27C4.875 21.48 4.725 21.75 4.725 22.08C5.715 22.08 6.21 21.69 6.21 20.91ZM4.455 23.115C4.455 23.355 4.5 23.595 4.59 23.835C4.68 24.075 4.74 24.24 4.77 24.33L6.21 22.89V22.53C5.73 22.53 5.31 22.56 4.95 22.62C4.62 22.68 4.455 22.845 4.455 23.115ZM16.74 23.16C16.44 23.25 16.155 23.43 15.885 23.7C15.645 23.94 15.465 24.21 15.345 24.51H17.595C17.265 24.12 16.98 23.67 16.74 23.16ZM11.925 23.385C11.385 23.355 10.875 23.52 10.395 23.88C9.945 24.21 9.72 24.615 9.72 25.095C10.2 25.095 10.725 24.93 11.295 24.6C11.895 24.24 12.315 23.85 12.555 23.43L11.925 23.385ZM13.41 24.825C13.5 24.825 13.575 24.645 13.635 24.285C13.695 23.925 13.725 23.64 13.725 23.43H13.41L12.015 24.825H13.41ZM7.83 24.825C8.19 24.825 8.58 24.735 9 24.555C9.42 24.345 9.63 24.075 9.63 23.745H6.48C6.27 23.745 6.165 23.94 6.165 24.33H7.83V24.825ZM5.715 25.05C5.085 25.05 4.77 25.275 4.77 25.725C5.01 25.725 5.22 25.68 5.4 25.59C5.61 25.47 5.715 25.29 5.715 25.05ZM5.58 26.265C5.55 26.295 5.4 26.415 5.13 26.625C4.86 26.835 4.725 27.09 4.725 27.39C5.085 27.39 5.325 27.345 5.445 27.255C5.565 27.135 5.625 26.91 5.625 26.58L5.58 26.265ZM4.77 28.47C4.8 28.53 4.845 28.62 4.905 28.74C4.965 28.86 5.025 28.95 5.085 29.01C5.325 28.92 5.445 28.62 5.445 28.11C5.325 28.11 5.175 28.14 4.995 28.2C4.845 28.23 4.77 28.32 4.77 28.47ZM5.625 29.505C5.325 29.505 5.13 29.625 5.04 29.865C4.98 30.075 4.95 30.39 4.95 30.81C5.4 30.81 5.625 30.375 5.625 29.505ZM5.265 31.215C4.845 31.215 4.635 31.68 4.635 32.61C4.635 32.76 4.635 32.88 4.635 32.97C4.665 33.06 4.68 33.12 4.68 33.15H5.085C5.145 33.15 5.235 33 5.355 32.7C5.505 32.37 5.58 32.13 5.58 31.98C5.58 31.83 5.55 31.665 5.49 31.485C5.43 31.275 5.37 31.17 5.31 31.17L5.265 31.215ZM4.77 35.715C5.01 35.715 5.175 35.625 5.265 35.445C5.385 35.265 5.445 35.07 5.445 34.86H4.77V35.715ZM4.77 37.425C4.77 37.545 4.815 37.65 4.905 37.74C4.995 37.83 5.055 37.89 5.085 37.92C5.145 37.86 5.355 37.65 5.715 37.29C6.105 36.9 6.3 36.63 6.3 36.48H5.58V35.985C5.4 36.075 5.22 36.315 5.04 36.705C4.89 37.095 4.8 37.305 4.77 37.335V37.425ZM15.93 36.48C15.81 36.48 15.69 36.495 15.57 36.525C15.48 36.555 15.405 36.63 15.345 36.75H15.435C15.885 36.75 16.14 36.66 16.2 36.48H15.93ZM15.345 37.605C15.825 37.605 16.155 37.59 16.335 37.56C16.545 37.5 16.77 37.335 17.01 37.065V37.605L19.215 36.75H16.425L15.345 37.605ZM19.755 38.73C20.265 38.73 20.595 38.55 20.745 38.19C20.895 37.83 20.97 37.35 20.97 36.75H19.755V38.73ZM11.745 37.02C11.355 37.02 10.98 37.095 10.62 37.245C10.26 37.395 9.99 37.62 9.81 37.92L10.62 37.965C11.1 37.965 11.46 37.92 11.7 37.83C11.97 37.71 12.165 37.455 12.285 37.065L11.745 37.02ZM14.355 37.02C14.295 37.02 14.16 37.125 13.95 37.335C13.74 37.515 13.56 37.71 13.41 37.92C13.53 37.92 13.71 37.83 13.95 37.65C14.19 37.47 14.37 37.275 14.49 37.065L14.355 37.02ZM7.335 37.065C6.825 37.275 6.345 37.56 5.895 37.92C6.255 37.92 6.51 37.875 6.66 37.785C6.84 37.665 7.065 37.425 7.335 37.065ZM19.215 37.335C19.065 37.335 18.795 37.41 18.405 37.56C18.045 37.71 17.865 37.83 17.865 37.92V38.37C18.195 38.37 18.51 38.28 18.81 38.1C19.14 37.89 19.395 37.635 19.575 37.335H19.215ZM8.55 37.605C8.46 37.605 8.34 37.635 8.19 37.695C8.04 37.755 7.92 37.83 7.83 37.92L8.145 37.965C8.415 37.965 8.595 37.845 8.685 37.605H8.55ZM45.1663 22.35C45.1663 23.64 45.0163 25.605 44.7163 28.245C44.6863 28.575 44.6113 29.355 44.4913 30.585C44.3713 31.815 44.3113 32.97 44.3113 34.05C44.3113 34.53 44.3713 35.25 44.4913 36.21C44.6113 37.23 44.6713 37.965 44.6713 38.415C44.6713 38.805 44.6263 39.06 44.5363 39.18C44.4463 39.3 44.2063 39.36 43.8163 39.36C42.7963 39.36 42.0913 39.285 41.7013 39.135C41.3113 38.985 40.8013 38.58 40.1713 37.92C39.9013 37.92 39.2413 38.115 38.1913 38.505C37.6513 38.685 37.0813 38.865 36.4813 39.045C35.9113 39.225 35.4313 39.315 35.0413 39.315C34.8313 39.315 34.6813 39.24 34.5913 39.09C34.3513 39.12 33.9613 39.135 33.4213 39.135C31.6213 39.135 30.0313 38.64 28.6513 37.65C27.3013 36.66 26.2513 35.355 25.5013 33.735C24.7513 32.115 24.3763 30.405 24.3763 28.605C24.3763 27.795 24.4813 26.79 24.6913 25.59C24.9313 24.39 25.1863 23.415 25.4563 22.665C25.6363 22.455 25.8463 22.2 26.0863 21.9C26.3263 21.57 26.4913 21.315 26.5813 21.135V21C27.1813 20.07 27.8713 19.425 28.6513 19.065C29.4313 18.705 30.4963 18.42 31.8463 18.21C32.0263 18.18 32.1913 18.135 32.3413 18.075C32.4913 18.015 32.6263 17.97 32.7463 17.94C33.2263 17.73 33.5863 17.625 33.8263 17.625V17.94C34.0063 17.73 34.2913 17.625 34.6813 17.625C35.1313 17.625 35.5663 17.685 35.9863 17.805C36.4063 17.925 36.9313 18.105 37.5613 18.345C38.0113 18.525 38.4763 18.69 38.9563 18.84C39.4663 18.96 39.9313 19.02 40.3513 19.02L40.4413 13.98L40.4863 12.315C40.4863 10.155 40.2913 8.61 39.9013 7.68H44.3113C44.3713 7.8 44.4313 8.04 44.4913 8.4C44.5513 8.73 44.5963 9.045 44.6263 9.345C44.5963 9.375 44.5813 9.42 44.5813 9.48C44.5813 9.57 44.6263 9.705 44.7163 9.885C44.8063 10.065 44.8663 10.2 44.8963 10.29C44.8963 10.38 44.8663 10.53 44.8063 10.74C44.7763 10.92 44.7163 11.1 44.6263 11.28C44.6263 12.51 44.7163 14.385 44.8963 16.905C45.0763 19.305 45.1663 21.12 45.1663 22.35ZM42.3313 8.715C41.8813 8.715 41.5963 8.76 41.4763 8.85C41.3563 8.94 41.2963 9.195 41.2963 9.615C41.2963 10.425 41.4763 10.83 41.8363 10.83L42.1063 10.74L41.8813 11.28H42.6913C42.3913 11.34 42.1363 11.475 41.9263 11.685C41.7463 11.895 41.6563 12.135 41.6563 12.405C42.1063 12.405 42.4813 12.18 42.7813 11.73C43.1113 11.25 43.2763 10.77 43.2763 10.29C43.2763 9.75 43.2313 9.36 43.1413 9.12C43.0513 8.85 42.7813 8.715 42.3313 8.715ZM42.1063 13.485C42.9163 13.485 43.3213 13.02 43.3213 12.09H42.9613L42.1063 13.485ZM41.8813 14.61C41.8813 14.76 41.8963 14.97 41.9263 15.24C41.9863 15.48 42.0463 15.63 42.1063 15.69C42.6763 15.36 42.9613 14.865 42.9613 14.205C42.6913 14.205 42.4363 14.25 42.1963 14.34C41.9863 14.4 41.8813 14.49 41.8813 14.61ZM42.8263 17.58C42.8263 17.76 42.7963 17.88 42.7363 17.94C42.7063 18 42.6163 18.06 42.4663 18.12C42.3463 18.18 42.2263 18.3 42.1063 18.48L42.4213 18.795L43.2313 17.94V15.6C42.9913 15.6 42.7363 15.81 42.4663 16.23C42.2263 16.65 42.1063 16.995 42.1063 17.265C42.1063 17.505 42.2113 17.625 42.4213 17.625L42.8263 17.58ZM42.4213 21C42.0913 21.15 41.5363 21.285 40.7563 21.405C40.2463 21.465 39.8263 21.54 39.4963 21.63C39.1663 21.72 38.8513 21.885 38.5513 22.125C38.6713 22.335 38.8663 22.56 39.1363 22.8C39.4063 23.01 39.6613 23.145 39.9013 23.205C41.0113 22.365 42.1213 21.72 43.2313 21.27C43.1713 21.21 43.1113 21.135 43.0513 21.045C42.9913 20.925 42.9613 20.82 42.9613 20.73C42.9613 20.58 43.0513 20.28 43.2313 19.83C43.4413 19.38 43.5463 19.035 43.5463 18.795H42.9613L41.5663 20.415L41.5213 20.595C41.5213 20.685 41.6263 20.775 41.8363 20.865C42.0463 20.955 42.2413 21 42.4213 21ZM30.7663 20.19L30.1363 20.415C30.3163 20.475 30.5113 20.535 30.7213 20.595C30.9313 20.655 31.1113 20.7 31.2613 20.73C31.6813 20.73 32.1613 20.52 32.7013 20.1C32.7613 20.07 32.8963 19.98 33.1063 19.83C33.3463 19.68 33.5863 19.605 33.8263 19.605H36.8413C36.6313 19.545 36.3313 19.455 35.9413 19.335C35.5513 19.215 35.2063 19.125 34.9063 19.065C34.5763 19.065 34.2313 19.11 33.8713 19.2C33.5113 19.29 33.2113 19.425 32.9713 19.605V19.335C31.5913 19.515 30.6463 19.71 30.1363 19.92L30.7663 20.19ZM37.6513 20.145C37.3513 20.145 37.1863 20.235 37.1563 20.415C37.2163 20.565 37.3363 20.79 37.5163 21.09C37.7263 21.39 37.9213 21.54 38.1013 21.54L39.6313 21C39.3613 21 39.1813 20.97 39.0913 20.91C39.0013 20.85 38.8963 20.745 38.7763 20.595C38.6863 20.445 38.5663 20.34 38.4163 20.28C38.2963 20.19 38.0413 20.145 37.6513 20.145ZM29.4163 20.73C28.9063 20.73 28.3813 20.985 27.8413 21.495C27.3013 22.005 26.8513 22.62 26.4913 23.34C26.1613 24.03 25.9963 24.645 25.9963 25.185C25.9963 25.215 26.0413 25.275 26.1313 25.365C26.2513 25.425 26.3563 25.455 26.4463 25.455C26.8063 25.455 27.3613 25.125 28.1113 24.465C28.8613 23.775 29.2663 23.265 29.3263 22.935L29.6413 22.35C29.7313 22.29 29.9113 22.215 30.1813 22.125C30.4813 22.035 30.7063 21.945 30.8563 21.855C31.0063 21.735 31.0813 21.585 31.0813 21.405L31.0363 21.27C30.5863 21.45 29.9263 21.54 29.0563 21.54C29.2963 21.54 29.4613 21.495 29.5513 21.405C29.6413 21.315 29.6863 21.18 29.6863 21C29.6863 20.88 29.6713 20.805 29.6413 20.775C29.6113 20.745 29.5363 20.73 29.4163 20.73ZM30.0463 32.16C30.4963 32.97 30.8863 33.57 31.2163 33.96C31.5463 34.32 32.0113 34.605 32.6113 34.815C33.2413 35.025 34.1113 35.13 35.2213 35.13C36.1513 35.13 37.0213 34.875 37.8313 34.365C38.6413 33.855 39.2863 33.18 39.7663 32.34C40.2463 31.5 40.4863 30.6 40.4863 29.64C40.4863 28.68 40.3963 27.78 40.2163 26.94C40.0663 26.1 39.6913 25.32 39.0913 24.6C38.4313 23.82 37.6363 23.07 36.7063 22.35C35.8063 21.6 35.0263 21.225 34.3663 21.225C33.8563 21.225 33.2863 21.495 32.6563 22.035C32.0263 22.575 31.6663 22.875 31.5763 22.935C30.6163 23.745 29.9863 24.555 29.6863 25.365C29.4163 26.145 29.2813 27.195 29.2813 28.515L29.3263 30.99L30.0463 32.16ZM41.8813 22.98C42.5413 22.98 43.0363 22.905 43.3663 22.755C43.6963 22.605 43.8613 22.245 43.8613 21.675C43.3813 21.675 42.9613 21.78 42.6013 21.99C42.2413 22.17 41.8063 22.485 41.2963 22.935L41.8813 22.98ZM41.5663 24.915C42.0463 24.915 42.4963 24.825 42.9163 24.645C43.3663 24.435 43.5913 24.09 43.5913 23.61C43.2013 23.61 42.8263 23.745 42.4663 24.015C42.1063 24.255 41.8063 24.555 41.5663 24.915ZM40.1713 24.42C40.8913 24.42 41.4613 24.21 41.8813 23.79H41.5663C41.3563 23.79 41.0713 23.835 40.7113 23.925C40.3813 23.985 40.2013 24.03 40.1713 24.06V24.42ZM42.0163 28.83C42.6763 28.83 43.0963 28.65 43.2763 28.29C43.4563 27.93 43.5463 27.405 43.5463 26.715L43.5013 25.185C43.0813 25.275 42.6913 25.5 42.3313 25.86C42.0013 26.19 41.8363 26.565 41.8363 26.985C41.8363 27.285 41.8813 27.48 41.9713 27.57C42.0613 27.63 42.3013 27.66 42.6913 27.66C42.2413 28.11 42.0163 28.5 42.0163 28.83ZM28.2913 25.365C27.7213 25.365 27.1513 25.575 26.5813 25.995L27.2563 26.04H27.4363C27.7363 26.04 27.9463 26.01 28.0663 25.95C28.2163 25.86 28.2913 25.665 28.2913 25.365ZM25.9963 26.85V27.66L27.7513 26.85H25.9963ZM28.0663 27.57C27.6463 27.57 27.1813 27.675 26.6713 27.885C26.1913 28.065 25.9513 28.32 25.9513 28.65L25.9963 28.785L27.7513 29.01C27.8413 29.01 27.9163 28.86 27.9763 28.56C28.0363 28.26 28.0663 27.93 28.0663 27.57ZM26.4463 29.325C26.1163 29.325 25.9063 29.4 25.8163 29.55C25.7263 29.67 25.6813 29.91 25.6813 30.27C25.9513 30.27 26.1913 30.135 26.4013 29.865C26.6413 29.565 26.7913 29.385 26.8513 29.325H26.4463ZM41.8813 29.64C42.0013 29.64 42.2713 29.535 42.6913 29.325H42.4213C42.2713 29.325 42.1513 29.34 42.0613 29.37C41.9713 29.4 41.9113 29.49 41.8813 29.64ZM27.7513 29.64C26.4913 30.3 25.8613 30.96 25.8613 31.62C26.5813 31.62 27.1063 31.53 27.4363 31.35C27.7963 31.17 27.9763 30.765 27.9763 30.135C27.9763 29.835 27.9013 29.67 27.7513 29.64ZM41.9713 30.54C42.3313 30.54 42.5863 30.495 42.7363 30.405C42.8863 30.285 42.9613 30.03 42.9613 29.64C42.7213 29.7 42.4963 29.805 42.2863 29.955C42.0763 30.105 41.9713 30.3 41.9713 30.54ZM41.2963 32.385C41.3863 32.355 41.5813 32.265 41.8813 32.115C42.1813 31.965 42.4363 31.785 42.6463 31.575C42.8563 31.365 42.9613 31.14 42.9613 30.9C42.3913 30.9 41.9713 31.005 41.7013 31.215C41.4313 31.395 41.2963 31.785 41.2963 32.385ZM26.3113 32.25C26.3113 33.12 26.6713 33.555 27.3913 33.555C27.9313 33.555 28.4113 33.435 28.8313 33.195L28.5163 32.655C28.0663 32.835 27.8113 33.015 27.7513 33.195L27.7063 33.06C27.7363 32.97 27.7963 32.82 27.8863 32.61C28.0063 32.37 28.1263 32.19 28.2463 32.07C28.1863 31.89 27.9913 31.8 27.6613 31.8C26.7613 31.8 26.3113 31.95 26.3113 32.25ZM42.2413 32.7C42.7213 32.7 42.9613 32.49 42.9613 32.07C42.6313 32.07 42.2713 32.265 41.8813 32.655L42.2413 32.7ZM27.0763 34.365C27.1663 34.455 27.2863 34.56 27.4363 34.68C27.5863 34.8 27.7063 34.875 27.7963 34.905C28.0363 34.905 28.2763 34.815 28.5163 34.635C28.7863 34.425 28.9663 34.215 29.0563 34.005C28.9663 33.855 28.8463 33.78 28.6963 33.78C28.5763 33.78 28.3213 33.87 27.9313 34.05C27.5713 34.2 27.2863 34.305 27.0763 34.365ZM41.5663 34.635C41.8063 34.635 42.0313 34.62 42.2413 34.59C42.4813 34.56 42.7213 34.485 42.9613 34.365C42.9613 34.125 42.9163 33.975 42.8263 33.915C42.7663 33.825 42.6313 33.78 42.4213 33.78C41.9713 33.78 41.5063 34.05 41.0263 34.59L41.5663 34.635ZM36.8413 37.65C37.2013 37.62 37.6813 37.41 38.2813 37.02C38.8813 36.6 39.4063 36.12 39.8563 35.58C40.3063 35.04 40.5313 34.575 40.5313 34.185L40.4863 34.005C40.3063 34.185 39.8713 34.575 39.1813 35.175C37.8013 36.255 37.0213 37.08 36.8413 37.65ZM28.2463 35.445C28.3063 35.595 28.3663 35.685 28.4263 35.715C28.5163 35.745 28.6513 35.76 28.8313 35.76C29.0113 35.76 29.2063 35.7 29.4163 35.58C29.6263 35.46 29.7913 35.31 29.9113 35.13H29.6863C29.1763 35.13 28.6963 35.235 28.2463 35.445ZM29.3263 36.255C29.4463 36.405 29.5963 36.51 29.7763 36.57C29.8063 36.57 30.0163 36.51 30.4063 36.39C30.7963 36.27 31.0813 36.045 31.2613 35.715C31.0213 35.505 30.7513 35.4 30.4513 35.4C30.2413 35.4 30.0763 35.445 29.9563 35.535C29.8363 35.625 29.7163 35.76 29.5963 35.94C29.4763 36.09 29.3863 36.195 29.3263 36.255ZM41.2963 36.345C41.5063 36.345 41.7013 36.255 41.8813 36.075C42.0913 35.865 42.1963 35.655 42.1963 35.445H41.2963V36.345ZM42.3313 36.615C42.7513 36.615 42.9613 36.39 42.9613 35.94C42.7813 35.94 42.6313 36 42.5113 36.12C42.3913 36.24 42.3313 36.405 42.3313 36.615ZM31.0813 37.38C31.3513 37.38 31.5313 37.305 31.6213 37.155C31.7113 36.975 31.7863 36.675 31.8463 36.255C31.8163 36.285 31.6063 36.375 31.2163 36.525C30.8563 36.675 30.6163 36.885 30.4963 37.155C30.5263 37.305 30.7213 37.38 31.0813 37.38ZM34.2313 37.02C33.7813 37.02 33.5413 37.23 33.5113 37.65C33.7213 37.62 33.8863 37.56 34.0063 37.47C34.1563 37.35 34.2313 37.2 34.2313 37.02ZM34.0063 38.28C34.6363 38.28 35.1313 38.205 35.4913 38.055C35.8513 37.905 36.1363 37.605 36.3463 37.155L35.7163 37.11C35.3563 37.11 34.9813 37.215 34.5913 37.425C34.2013 37.635 34.0063 37.92 34.0063 38.28ZM32.4313 37.92C32.6113 37.92 32.7613 37.86 32.8813 37.74C33.0313 37.62 33.1063 37.47 33.1063 37.29C32.8963 37.29 32.7163 37.32 32.5663 37.38C32.4163 37.44 32.2663 37.53 32.1163 37.65C32.1163 37.71 32.1463 37.77 32.2063 37.83C32.2663 37.89 32.3413 37.92 32.4313 37.92ZM42.9613 37.92C42.9013 37.71 42.7063 37.605 42.3763 37.605L41.8813 37.65V37.92H42.9613ZM50.2193 29.145C50.2193 27.645 50.4893 25.995 51.0293 24.195C51.5693 22.395 52.2293 20.85 53.0093 19.56L53.0993 19.605C53.2793 19.605 53.6543 19.41 54.2243 19.02C54.7643 18.66 55.1093 18.48 55.2593 18.48C55.4693 18.42 56.0093 18.285 56.8793 18.075C57.7793 17.865 58.6193 17.76 59.3993 17.76V18.165C59.8193 18.015 60.1943 17.925 60.5243 17.895C60.8843 17.865 61.2443 17.85 61.6043 17.85C62.5343 17.85 63.4343 17.94 64.3043 18.12C65.2043 18.3 65.6543 18.615 65.6543 19.065C66.4043 19.065 66.9893 19.335 67.4093 19.875C67.8593 20.385 68.2943 21.09 68.7143 21.99C68.8643 22.32 69.0143 22.62 69.1643 22.89C69.3443 23.16 69.5093 23.34 69.6593 23.43V27.3L68.8493 27.885L69.0743 28.155C68.2643 28.785 66.4943 29.1 63.7643 29.1H61.4243C59.9243 29.1 58.9343 29.085 58.4543 29.055C58.0043 29.025 57.1043 28.905 55.7543 28.695C55.7243 28.515 55.6343 28.425 55.4843 28.425C55.4243 28.425 55.3493 28.44 55.2593 28.47C55.1693 28.5 55.0793 28.515 54.9893 28.515C54.9893 29.385 55.0943 30.345 55.3043 31.395C55.5443 32.445 55.8893 33.21 56.3393 33.69C56.5793 33.96 57.2393 34.29 58.3193 34.68C58.8593 34.86 59.2193 34.995 59.3993 35.085C59.9393 35.475 60.4043 35.67 60.7943 35.67C61.4843 35.67 62.2343 35.58 63.0443 35.4C63.8543 35.22 64.3193 35.115 64.4393 35.085C65.8793 34.695 67.0343 34.5 67.9043 34.5C68.2943 34.5 68.5493 34.68 68.6693 35.04C68.8193 35.37 68.8943 35.805 68.8943 36.345C68.8943 36.915 68.8493 37.275 68.7593 37.425C68.6693 37.575 68.5043 37.68 68.2643 37.74C68.0243 37.77 67.8293 37.89 67.6793 38.1C67.4993 38.16 65.7443 38.46 62.4143 39C61.1543 39 60.0293 38.97 59.0393 38.91C58.0793 38.85 57.1793 38.685 56.3393 38.415C55.4093 38.115 54.4643 37.41 53.5043 36.3C52.5743 35.19 51.7943 33.96 51.1643 32.61C50.5343 31.26 50.2193 30.105 50.2193 29.145ZM64.4393 20.55C64.4393 20.79 64.7093 21.15 65.2493 21.63C65.7893 22.11 66.1493 22.35 66.3293 22.35C66.5093 22.35 66.7493 22.29 67.0493 22.17C67.3493 22.05 67.4993 21.915 67.4993 21.765C67.4993 21.585 67.4393 21.33 67.3193 21C67.1993 20.64 67.1393 20.43 67.1393 20.37C67.1393 20.46 67.0643 20.535 66.9143 20.595C66.7943 20.625 66.6893 20.64 66.5993 20.64C66.3593 20.61 66.0743 20.49 65.7443 20.28C65.4443 20.07 65.2943 19.83 65.2943 19.56C64.4243 19.56 63.9893 19.35 63.9893 18.93C63.9293 18.93 63.8093 19.035 63.6293 19.245C63.4493 19.455 63.1193 19.56 62.6393 19.56C62.4893 19.56 62.3393 19.5 62.1893 19.38C62.0393 19.26 61.8443 19.2 61.6043 19.2L61.0193 19.245C61.0793 19.275 61.2143 19.47 61.4243 19.83C61.6643 20.19 61.8593 20.385 62.0093 20.415C62.0693 20.415 62.1743 20.37 62.3243 20.28C62.5043 20.16 62.6543 20.1 62.7743 20.1C62.8943 20.13 63.1193 20.22 63.4493 20.37C63.7793 20.49 64.1093 20.55 64.4393 20.55ZM52.3343 29.865C52.6043 29.865 52.8743 29.805 53.1443 29.685C53.4443 29.535 53.5943 29.34 53.5943 29.1C53.5943 29.04 53.5493 28.95 53.4593 28.83C53.3693 28.68 53.3243 28.545 53.3243 28.425C53.3843 28.215 53.4893 27.96 53.6393 27.66C53.7893 27.33 53.8643 27 53.8643 26.67C53.8643 26.43 53.8043 26.265 53.6843 26.175C53.5943 26.055 53.4443 25.95 53.2343 25.86C53.0543 25.77 52.9643 25.665 52.9643 25.545C52.9643 25.425 53.0543 25.155 53.2343 24.735C53.4443 24.285 53.5493 23.985 53.5493 23.835C53.5493 23.535 53.8343 23.04 54.4043 22.35C54.7343 21.9 54.9893 21.54 55.1693 21.27C55.3493 21 55.4393 20.73 55.4393 20.46C55.5593 20.46 55.7243 20.49 55.9343 20.55C56.1443 20.61 56.3543 20.64 56.5643 20.64C56.6543 20.64 56.7143 20.565 56.7443 20.415C56.7743 20.235 56.8193 20.13 56.8793 20.1C57.1193 20.01 57.5993 19.965 58.3193 19.965C59.0093 19.935 59.5343 19.905 59.8943 19.875C60.2543 19.815 60.4493 19.71 60.4793 19.56C60.1493 19.41 59.8343 19.32 59.5343 19.29C59.2343 19.23 58.8443 19.2 58.3643 19.2C56.3243 19.2 54.7643 19.89 53.6843 21.27C52.6343 22.65 52.1093 24.39 52.1093 26.49H53.5493V26.76L51.8843 28.425V29.28L52.4243 28.965L51.8843 29.82L52.3343 29.865ZM54.9443 24.6C55.0943 24.9 55.9643 25.11 57.5543 25.23C59.1743 25.32 60.5243 25.365 61.6043 25.365C62.1443 25.365 62.8643 25.305 63.7643 25.185C64.6043 25.065 65.2943 25.005 65.8343 25.005C65.8343 24.855 65.7293 24.555 65.5193 24.105C65.3093 23.625 65.1443 23.385 65.0243 23.385L64.9343 23.43C64.7243 22.8 64.0493 22.275 62.9093 21.855C61.7993 21.435 60.8543 21.225 60.0743 21.225C58.8743 21.225 57.8243 21.51 56.9243 22.08C56.0243 22.65 55.3643 23.49 54.9443 24.6ZM67.4993 25.545C67.4993 25.995 67.3493 26.295 67.0493 26.445C66.7493 26.565 66.3143 26.625 65.7443 26.625C65.2643 26.655 64.9043 26.715 64.6643 26.805C64.4243 26.895 64.3043 27.09 64.3043 27.39C65.2943 27.39 66.0743 27.36 66.6443 27.3C67.2143 27.24 67.5593 27.06 67.6793 26.76C67.8293 27 68.0393 27.12 68.3093 27.12C68.3093 26.88 68.2493 26.625 68.1293 26.355C68.0393 26.055 67.9943 25.83 67.9943 25.68C67.9943 25.56 68.0543 25.455 68.1743 25.365C68.3243 25.275 68.4293 25.17 68.4893 25.05C68.5793 24.93 68.6243 24.69 68.6243 24.33C68.6243 23.16 68.2793 22.575 67.5893 22.575C67.2893 22.575 67.0943 22.665 67.0043 22.845C66.9443 22.995 66.9143 23.295 66.9143 23.745C67.2443 24.735 67.4393 25.275 67.4993 25.365V25.545ZM55.3043 26.085C55.0343 26.085 54.7943 26.19 54.5843 26.4C54.4043 26.61 54.3143 26.85 54.3143 27.12C54.7043 27.12 54.9593 27.045 55.0793 26.895C55.2293 26.745 55.3043 26.475 55.3043 26.085ZM56.1593 26.49C56.0993 26.49 55.9193 26.625 55.6193 26.895C55.3493 27.165 55.1243 27.405 54.9443 27.615L55.8893 27.435C55.9493 27.435 56.1443 27.405 56.4743 27.345C56.8343 27.255 57.2543 27.06 57.7343 26.76C57.6443 26.73 57.1793 26.64 56.3393 26.49H56.1593ZM57.7343 27.3C58.3343 27.51 58.8593 27.615 59.3093 27.615C59.5793 27.615 59.8043 27.525 59.9843 27.345C60.1943 27.165 60.2993 26.94 60.2993 26.67C58.7993 26.67 57.9443 26.88 57.7343 27.3ZM62.0093 27.03C61.5893 27.03 61.1693 27.09 60.7493 27.21C60.3593 27.3 60.1643 27.48 60.1643 27.75L60.2093 27.885C60.2693 27.885 60.7943 27.855 61.7843 27.795C62.8043 27.705 63.3893 27.45 63.5393 27.03H62.2793H62.0093ZM53.3693 30.27C52.7993 30.27 52.4393 30.36 52.2893 30.54C52.1393 30.69 52.0643 31.065 52.0643 31.665C52.4243 31.665 52.7243 31.53 52.9643 31.26C53.2343 30.96 53.3693 30.63 53.3693 30.27ZM53.5493 30.9C53.4893 30.99 53.3243 31.23 53.0543 31.62C52.8143 31.98 52.6943 32.34 52.6943 32.7C53.5643 32.7 54.1343 32.58 54.4043 32.34C54.3143 32.13 54.1643 31.89 53.9543 31.62C53.7443 31.32 53.6093 31.08 53.5493 30.9ZM53.0093 33.42C53.1593 33.51 53.2793 33.69 53.3693 33.96C53.4593 34.2 53.5193 34.395 53.5493 34.545C54.2393 34.185 54.5843 33.615 54.5843 32.835C53.7443 32.835 53.2193 33.03 53.0093 33.42ZM55.2593 35.94C55.6193 35.4 55.7993 35.055 55.7993 34.905L55.7543 34.77L54.1343 34.545L53.8193 34.77L55.2593 35.94ZM55.7543 36.21C55.7843 36.27 55.8293 36.33 55.8893 36.39C55.9493 36.42 56.0093 36.45 56.0693 36.48C56.3393 36.42 56.6393 36.285 56.9693 36.075C57.2993 35.865 57.4643 35.715 57.4643 35.625C57.4643 35.475 57.4043 35.355 57.2843 35.265C57.1943 35.145 57.1193 35.085 57.0593 35.085C56.7893 35.085 56.5043 35.22 56.2043 35.49C55.9043 35.73 55.7543 35.97 55.7543 36.21ZM56.8793 37.02C57.5393 37.17 57.9143 37.275 58.0043 37.335C58.1543 37.485 58.2443 37.56 58.2743 37.56C58.7243 37.56 59.1143 37.425 59.4443 37.155C59.8043 36.855 59.9843 36.495 59.9843 36.075C58.8443 36.075 58.2743 36.21 58.2743 36.48C58.2743 36.39 58.2143 36.27 58.0943 36.12C58.0043 35.97 57.9293 35.895 57.8693 35.895C57.8093 35.895 57.6143 36.045 57.2843 36.345C56.9843 36.615 56.8343 36.795 56.8343 36.885L56.8793 37.02ZM59.9393 37.335C60.0893 37.485 60.1793 37.56 60.2093 37.56C60.7193 37.56 61.3193 37.5 62.0093 37.38C62.6993 37.26 63.1343 37.185 63.3143 37.155C64.5743 36.915 65.3993 36.795 65.7893 36.795L66.3293 37.02C66.6893 37.02 67.0193 36.945 67.3193 36.795C67.6193 36.645 67.7693 36.405 67.7693 36.075C67.1693 36.075 66.3593 36.195 65.3393 36.435C65.1893 36.465 64.9343 36.525 64.5743 36.615C64.2143 36.705 63.8693 36.765 63.5393 36.795C62.9393 36.795 62.2943 36.825 61.6043 36.885C60.9443 36.915 60.4793 36.96 60.2093 37.02L59.9393 37.335Z" fill="#355C7D"/>
</svg>
